# xmcd CD database file
#
# Track frame offsets:
#	150
#	15147
#	30485
#	43932
#	56822
#	71295
#	87700
#	103482
#	117005
#	132997
#	148635
#	161890
#	177700
#	202967
#	229787
#	244865
#	270672
#
# Disc length: 3965 seconds
#
# Revision: 0
# Processed by: cddbd v1.5.1PL0 Copyright (c) Steve Scherf et al.
# Submitted via: CDex 1.51
#
DISCID=f70f7b11
DTITLE=Victor Feldman - Latinsville!
DYEAR=2003
DGENRE=Jazz
TTITLE0=South Of The Border
TTITLE1=She's A Latin From Manhattan
TTITLE2=Flying Down to Rio
TTITLE3=Cuban Pete
TTITLE4=The Gypsy
TTITLE5=Poinciana
TTITLE6=Lady Of Spain
TTITLE7=Spain
TTITLE8=Cuban Love Song
TTITLE9=In A Little Spanish Town
TTITLE10=Fiesta
TTITLE11=Woody'N You
TTITLE12=Poinciana
TTITLE13=Pancho
TTITLE14=The Breeze And I
TTITLE15=Bullues Bullose
TTITLE16=Lady Of Spain
EXTD=YEAR: 2003
EXTT0=
EXTT1=
EXTT2=
EXTT3=
EXTT4=
EXTT5=
EXTT6=
EXTT7=
EXTT8=
EXTT9=
EXTT10=
EXTT11=
EXTT12=
EXTT13=
EXTT14=
EXTT15=
EXTT16=
PLAYORDER=
